<svg width="364" viewBox="0 0 364 329" xmlns="http://www.w3.org/2000/svg" height="329" xmlns:xlink="http://www.w3.org/1999/xlink">
    <defs/>
    <g transform="translate(-73.56,-56.65)">
        <path d="M350.2,327.2C356.9,327.2,362.2,321.8,362.2,315.2L362.2,12.0C362.2,5.4,356.9,.0,350.2,.0L12.0,.0C5.4,.0,.0,5.4,.0,12.0L.0,315.2C.0,321.8,5.4,327.2,12.0,327.2L350.2,327.2z" fill-rule="nonzero" transform="translate(74.56,57.65)" stroke="#d8edcd" id="shape1" fill="#d8edcd"/>
        <path d="M305.0,40.9C311.6,40.9,317.0,35.5,317.0,28.9L317.0,12.0C317.0,5.4,311.6,.0,305.0,.0L12.0,.0C5.4,.0,.0,5.4,.0,12.0L.0,28.9C.0,35.5,5.4,40.9,12.0,40.9L305.0,40.9z" fill-rule="nonzero" transform="translate(94.73,326.77)" stroke="#68a28c" id="shape2" fill="#68a28c"/>
        <g transform="translate(146.45,330.60)" id="shape3">
            <text xml:space="preserve" style="fill:#ffffff;font-family:Arial;font-size:14.00pt;font-weight:bold">
                <tspan x="37.7" y="24.1">Filecoin-backer</tspan>
            </text>
        </g>
        <path d="M14.8,.0L14.8,14.3L23.4,12.0L11.7,28.4L.0,12.0L8.7,14.3L8.7,.0L14.8,.0" fill-rule="nonzero" transform="translate(231.64,298.50)" id="shape4" fill="#68a28c"/>
        <path d="M14.8,.0L14.8,14.3L23.4,12.0L11.7,28.4L.0,12.0L8.7,14.3L8.7,.0L14.8,.0" fill-rule="nonzero" transform="matrix(-1.00,-0.00,0.00,-1.00,285.4,326.9)" id="shape5" fill="#68a28c"/>
        <path d="M305.0,40.9C311.6,40.9,317.0,35.5,317.0,28.9L317.0,12.0C317.0,5.4,311.6,.0,305.0,.0L12.0,.0C5.4,.0,.0,5.4,.0,12.0L.0,28.9C.0,35.5,5.4,40.9,12.0,40.9L305.0,40.9z" fill-rule="nonzero" transform="translate(94.73,258.36)" stroke="#68a28c" id="shape6" fill="#68a28c"/>
        <g transform="translate(178.40,262.19)" id="shape7">
            <text xml:space="preserve" style="fill:#ffffff;font-family:Arial;font-size:14.00pt;font-weight:bold">
                <tspan x="17.3" y="24.1">IPFS Cluster</tspan>
            </text>
        </g>
        <path d="M305.0,40.9C311.6,40.9,317.0,35.5,317.0,28.9L317.0,12.0C317.0,5.4,311.6,.0,305.0,.0L12.0,.0C5.4,.0,.0,5.4,.0,12.0L.0,28.9C.0,35.5,5.4,40.9,12.0,40.9L305.0,40.9z" fill-rule="nonzero" transform="translate(94.73,189.58)" stroke="#68a28c" id="shape8" fill="#68a28c"/>
        <g transform="translate(127.83,193.40)" id="shape9">
            <text xml:space="preserve" style="fill:#ffffff;font-family:Arial;font-size:14.00pt;font-weight:bold">
                <tspan x="18.9" y="24.1">Cloud Storage Gateway</tspan>
            </text>
        </g>
        <path d="M14.8,.0L14.8,14.3L23.4,12.0L11.7,28.4L.0,12.0L8.7,14.3L8.7,.0L14.8,.0" fill-rule="nonzero" transform="translate(231.64,230.22)" id="shape10" fill="#68a28c"/>
        <path d="M14.8,.0L14.8,14.3L23.4,12.0L11.7,28.4L.0,12.0L8.7,14.3L8.7,.0L14.8,.0" fill-rule="nonzero" transform="matrix(-1.00,-0.00,0.00,-1.00,285.4,258.6)" id="shape11" fill="#68a28c"/>
        <path d="M125.7,77.0C132.3,77.0,137.7,71.6,137.7,65.0L137.7,12.0C137.7,5.4,132.3,.0,125.7,.0L12.0,.0C5.4,.0,.0,5.4,.0,12.0L.0,65.0C.0,71.6,5.4,77.0,12.0,77.0L125.7,77.0z" fill-rule="nonzero" transform="translate(98.76,84.04)" stroke="#68a28c" id="shape12" fill="#68a28c"/>
        <g transform="translate(92.79,105.91)" id="shape13">
            <text xml:space="preserve" style="fill:#ffffff;font-family:Arial;font-size:14.00pt;font-weight:bold">
                <tspan x="47.8" y="24.1">POSS</tspan>
            </text>
        </g>
        <path d="M125.7,77.0C132.3,77.0,137.7,71.6,137.7,65.0L137.7,12.0C137.7,5.4,132.3,.0,125.7,.0L12.0,.0C5.4,.0,.0,5.4,.0,12.0L.0,65.0C.0,71.6,5.4,77.0,12.0,77.0L125.7,77.0z" fill-rule="nonzero" transform="translate(268.28,84.04)" stroke="#68a28c" id="shape14" fill="#68a28c"/>
        <g transform="translate(262.30,105.91)" id="shape15">
            <text xml:space="preserve" style="fill:#ffffff;font-family:Arial;font-size:14.00pt;font-weight:bold">
                <tspan x="31.8" y="24.1">MySpace</tspan>
            </text>
        </g>
        <path d="M14.8,.0L14.8,14.3L23.4,12.0L11.7,28.4L.0,12.0L8.7,14.3L8.7,.0L14.8,.0" fill-rule="nonzero" transform="translate(146.68,161.19)" id="shape16" fill="#68a28c"/>
        <path d="M14.8,.0L14.8,14.3L23.4,12.0L11.7,28.4L.0,12.0L8.7,14.3L8.7,.0L14.8,.0" fill-rule="nonzero" transform="matrix(-1.00,-0.00,0.00,-1.00,200.5,189.6)" id="shape17" fill="#68a28c"/>
        <path d="M14.8,.0L14.8,14.3L23.4,12.0L11.7,28.4L.0,12.0L8.7,14.3L8.7,.0L14.8,.0" fill-rule="nonzero" transform="translate(304.25,161.19)" id="shape18" fill="#68a28c"/>
        <path d="M14.8,.0L14.8,14.3L23.4,12.0L11.7,28.4L.0,12.0L8.7,14.3L8.7,.0L14.8,.0" fill-rule="nonzero" transform="matrix(-1.00,-0.00,0.00,-1.00,358.0,189.6)" id="shape19" fill="#68a28c"/>
    </g>
</svg>
